<svg width="25" height="24" viewBox="0 0 25 24" fill="none" xmlns="http://www.w3.org/2000/svg">
<path d="M18.4029 0C22.4841 0 24.788 2.3148 24.8 6.396V17.604C24.8 21.684 22.4841 24 18.4029 24H7.19605C3.11485 24 0.800049 21.684 0.800049 17.604V6.396C0.800049 2.3148 3.11485 0 7.19605 0H18.4029ZM13.4 4.956C13.0628 4.752 12.6549 4.752 12.3321 4.956C12.0069 5.1588 11.8281 5.532 11.8629 5.904V18.132C11.9241 18.648 12.3548 19.032 12.8589 19.032C13.376 19.032 13.8069 18.648 13.8548 18.132V5.904C13.9029 5.532 13.724 5.1588 13.4 4.956ZM7.79605 8.892C7.47205 8.688 7.06285 8.688 6.74005 8.892C6.41485 9.096 6.23605 9.4668 6.27205 9.84V18.132C6.31885 18.648 6.75085 19.032 7.26685 19.032C7.78405 19.032 8.21485 18.648 8.26285 18.132V9.84C8.30005 9.4668 8.11885 9.096 7.79605 8.892ZM18.9069 13.248C18.5841 13.044 18.1761 13.044 17.84 13.248C17.5149 13.452 17.3361 13.8108 17.3841 14.196V18.132C17.4321 18.648 17.8629 19.032 18.3801 19.032C18.8841 19.032 19.3148 18.648 19.3761 18.132V14.196C19.4109 13.8108 19.232 13.452 18.9069 13.248Z" fill="#3949AB"/>
</svg>
