<svg width="22" height="24" viewBox="0 0 22 24" fill="none" xmlns="http://www.w3.org/2000/svg">
<path fill-rule="evenodd" clip-rule="evenodd" d="M1.16712 2.47329C0 4.05048 0 6.30032 0 10.8V13.2C0 17.6997 0 19.9495 1.16712 21.5267C1.54405 22.0361 2.00029 22.484 2.51909 22.8541C4.12549 24 6.41699 24 11 24C15.583 24 17.8745 24 19.4809 22.8541C19.9997 22.484 20.456 22.0361 20.8329 21.5267C22 19.9495 22 17.6997 22 13.2V10.8C22 6.30032 22 4.05048 20.8329 2.47329C20.456 1.96392 19.9997 1.51598 19.4809 1.1459C17.8745 0 15.583 0 11 0C6.41699 0 4.12549 0 2.51909 1.1459C2.00029 1.51598 1.54405 1.96392 1.16712 2.47329ZM6.11111 6.3C5.60485 6.3 5.19444 6.70294 5.19444 7.2C5.19444 7.69706 5.60485 8.1 6.11111 8.1H9.77778C10.284 8.1 10.6944 7.69706 10.6944 7.2C10.6944 6.70294 10.284 6.3 9.77778 6.3H6.11111ZM6.11111 11.1C5.60485 11.1 5.19444 11.5029 5.19444 12C5.19444 12.4971 5.60485 12.9 6.11111 12.9H15.8889C16.3951 12.9 16.8056 12.4971 16.8056 12C16.8056 11.5029 16.3951 11.1 15.8889 11.1H6.11111ZM6.11111 15.9C5.60485 15.9 5.19444 16.3029 5.19444 16.8C5.19444 17.2971 5.60485 17.7 6.11111 17.7H15.8889C16.3951 17.7 16.8056 17.2971 16.8056 16.8C16.8056 16.3029 16.3951 15.9 15.8889 15.9H6.11111Z" fill="#3949AB"/>
</svg>
