<svg width="24" height="22" viewBox="0 0 24 22" fill="none" xmlns="http://www.w3.org/2000/svg">
<path d="M14.2979 0.846154C14.2979 0.378836 14.6408 0 15.0638 0H16.0851C19.3283 0 21.9574 2.90441 21.9574 6.48718V7.61539C21.9574 8.0827 21.6145 8.46154 21.1915 8.46154C20.7685 8.46154 20.4255 8.0827 20.4255 7.61539V6.48718C20.4255 3.83905 18.4823 1.69231 16.0851 1.69231H15.0638C14.6408 1.69231 14.2979 1.31347 14.2979 0.846154Z" fill="white"/>
<path d="M2.04255 6.48718C2.04255 2.90441 4.67169 0 7.91489 0H8.93617C9.3592 0 9.70213 0.378836 9.70213 0.846154C9.70213 1.31347 9.3592 1.69231 8.93617 1.69231H7.91489C5.51774 1.69231 3.57447 3.83905 3.57447 6.48718V7.61539C3.57447 8.0827 3.23154 8.46154 2.80851 8.46154C2.38548 8.46154 2.04255 8.0827 2.04255 7.61539V6.48718Z" fill="white"/>
<path d="M0 13.2564C0 12.7891 0.342931 12.4103 0.765957 12.4103H23.234C23.6571 12.4103 24 12.7891 24 13.2564C24 13.7237 23.6571 14.1026 23.234 14.1026H21.9139C21.9421 14.1908 21.9574 14.2857 21.9574 14.3846V15.5128C21.9574 19.0956 19.3283 22 16.0851 22H15.0638C14.6408 22 14.2979 21.6212 14.2979 21.1538C14.2979 20.6865 14.6408 20.3077 15.0638 20.3077H16.0851C18.4823 20.3077 20.4255 18.161 20.4255 15.5128V14.3846C20.4255 14.2857 20.4409 14.1908 20.4691 14.1026H17.0031C16.5766 16.2012 14.8796 17.7692 12.8511 17.7692H11.1489C9.12043 17.7692 7.42344 16.2012 6.99693 14.1026H3.53088C3.55911 14.1908 3.57447 14.2857 3.57447 14.3846V15.5128C3.57447 18.161 5.51774 20.3077 7.91489 20.3077H8.93617C9.3592 20.3077 9.70213 20.6865 9.70213 21.1538C9.70213 21.6212 9.3592 22 8.93617 22H7.91489C4.67169 22 2.04255 19.0956 2.04255 15.5128V14.3846C2.04255 14.2857 2.05791 14.1908 2.08614 14.1026H0.765957C0.342931 14.1026 0 13.7237 0 13.2564Z" fill="white"/>
<path d="M11.1489 4.23077C8.79879 4.23077 6.89362 6.33541 6.89362 8.93162C6.89362 9.45087 7.27465 9.8718 7.74468 9.8718H16.2553C16.7253 9.8718 17.1064 9.45087 17.1064 8.93162C17.1064 6.33541 15.2012 4.23077 12.8511 4.23077H11.1489Z" fill="white"/>
</svg>
