<svg width="22" height="24" viewBox="0 0 22 24" fill="none" xmlns="http://www.w3.org/2000/svg">
<path fill-rule="evenodd" clip-rule="evenodd" d="M5.5 3.33416C4.22715 3.47698 3.29351 3.75275 2.51909 4.2852C2.00029 4.6419 1.54405 5.07366 1.16712 5.56462C0 7.0848 0 9.25332 0 13.5904C0 17.9274 0 20.0959 1.16712 21.6161C1.54405 22.1071 2.00029 22.5388 2.51909 22.8955C4.12549 24 6.41699 24 11 24C12.0254 24 12.936 24 13.75 23.9876L13.75 23.9065C13.7499 22.9211 13.7499 22.3208 13.8365 21.803C14.3128 18.9572 16.6713 16.7254 19.6784 16.2747C20.2256 16.1926 20.8599 16.1927 21.9012 16.1928L21.9869 16.1928C22 15.4226 22 14.561 22 13.5909C22 9.25386 22 7.0848 20.8329 5.56462C20.456 5.07366 19.9997 4.6419 19.4809 4.2852C18.7065 3.75275 17.7728 3.47698 16.5 3.33416V4.33735C16.5 5.29553 15.6792 6.07229 14.6667 6.07229C13.6541 6.07229 12.8333 5.29553 12.8333 4.33735V3.18397C12.2661 3.18072 11.6566 3.18072 11 3.18072C10.3434 3.18072 9.7339 3.18072 9.16667 3.18397V4.33735C9.16667 5.29553 8.34586 6.07229 7.33333 6.07229C6.32081 6.07229 5.5 5.29553 5.5 4.33735V3.33416ZM4.88889 10.1205C5.5639 10.1205 6.11111 9.60264 6.11111 8.96386C6.11111 8.32507 5.5639 7.80723 4.88889 7.80723C4.21387 7.80723 3.66667 8.32507 3.66667 8.96386C3.66667 9.60264 4.21387 10.1205 4.88889 10.1205ZM6.11111 13.5904C6.11111 14.2291 5.5639 14.747 4.88889 14.747C4.21387 14.747 3.66667 14.2291 3.66667 13.5904C3.66667 12.9516 4.21387 12.4337 4.88889 12.4337C5.5639 12.4337 6.11111 12.9516 6.11111 13.5904ZM11 10.1205C11.675 10.1205 12.2222 9.60264 12.2222 8.96386C12.2222 8.32507 11.675 7.80723 11 7.80723C10.325 7.80723 9.77778 8.32507 9.77778 8.96386C9.77778 9.60264 10.325 10.1205 11 10.1205ZM12.2222 13.5904C12.2222 14.2291 11.675 14.747 11 14.747C10.325 14.747 9.77778 14.2291 9.77778 13.5904C9.77778 12.9516 10.325 12.4337 11 12.4337C11.675 12.4337 12.2222 12.9516 12.2222 13.5904ZM11 19.3735C11.675 19.3735 12.2222 18.8557 12.2222 18.2169C12.2222 17.5781 11.675 17.0602 11 17.0602C10.325 17.0602 9.77778 17.5781 9.77778 18.2169C9.77778 18.8557 10.325 19.3735 11 19.3735ZM18.3333 8.96386C18.3333 9.60264 17.7861 10.1205 17.1111 10.1205C16.4361 10.1205 15.8889 9.60264 15.8889 8.96386C15.8889 8.32507 16.4361 7.80723 17.1111 7.80723C17.7861 7.80723 18.3333 8.32507 18.3333 8.96386ZM17.1111 14.747C17.7861 14.747 18.3333 14.2291 18.3333 13.5904C18.3333 12.9516 17.7861 12.4337 17.1111 12.4337C16.4361 12.4337 15.8889 12.9516 15.8889 13.5904C15.8889 14.2291 16.4361 14.747 17.1111 14.747ZM6.11111 18.2169C6.11111 18.8557 5.5639 19.3735 4.88889 19.3735C4.21387 19.3735 3.66667 18.8557 3.66667 18.2169C3.66667 17.5781 4.21387 17.0602 4.88889 17.0602C5.5639 17.0602 6.11111 17.5781 6.11111 18.2169Z" fill="#3949AB"/>
<path d="M21.9201 17.9277C20.8075 17.9279 20.3421 17.9317 19.9652 17.9882C17.7425 18.3214 15.9993 19.971 15.6473 22.0744C15.5876 22.4311 15.5835 22.8715 15.5833 23.9244C17.3429 23.8152 18.5315 23.5483 19.4809 22.8955C19.9997 22.5388 20.456 22.1071 20.8329 21.6161C21.5226 20.7177 21.8048 19.5928 21.9201 17.9277Z" fill="#3949AB"/>
<path d="M8.25 0.86747C8.25 0.388379 7.83959 0 7.33333 0C6.82707 0 6.41667 0.38838 6.41667 0.86747V4.33735C6.41667 4.81644 6.82707 5.20482 7.33333 5.20482C7.83959 5.20482 8.25 4.81644 8.25 4.33735V0.86747Z" fill="#3949AB"/>
<path d="M15.5833 0.86747C15.5833 0.388379 15.1729 0 14.6667 0C14.1604 0 13.75 0.38838 13.75 0.86747V4.33735C13.75 4.81644 14.1604 5.20482 14.6667 5.20482C15.1729 5.20482 15.5833 4.81644 15.5833 4.33735V0.86747Z" fill="#3949AB"/>
</svg>
